<svg width="32" height="39" viewBox="0 0 32 39" fill="none" xmlns="http://www.w3.org/2000/svg">
<path d="M31.9888 9.93336C29.4092 11.3376 26.9282 12.8144 24.5458 14.3636C22.4389 15.7358 20.3273 17.0996 18.2111 18.4549C18.2 18.4606 17.8696 18.7091 17.22 19.2004C16.9129 19.4338 16.5546 19.6408 16.1452 19.8215L16.0977 0L31.8102 9.47877C31.8477 9.50092 31.8799 9.53141 31.9046 9.56803C31.9292 9.60465 31.9456 9.64649 31.9525 9.69054L31.9888 9.93336Z" fill="#1D1B1C"/>
<path d="M31.9888 9.93336L32 29.4613L16.1452 19.8215C16.5546 19.6408 16.9129 19.4338 17.22 19.2004C17.8696 18.7091 18.2 18.4606 18.2111 18.4549C20.3273 17.0996 22.4389 15.7358 24.5458 14.3636C26.9282 12.8144 29.4092 11.3376 31.9888 9.93336Z" fill="#2B2B2B"/>
<path d="M11.0445 21.7952C11.3553 21.7162 11.5675 21.8103 11.681 22.0776C11.6978 22.1159 11.7017 22.1588 11.6921 22.1996C11.6825 22.2404 11.66 22.2768 11.628 22.3035C11.1757 22.6818 10.836 22.9378 10.609 23.0715C7.14151 25.112 3.68243 27.2664 0.231723 29.5347C0.10516 29.5742 0.0418783 29.4443 0.0418783 29.145C0.0325722 24.0061 0.0325722 18.8408 0.0418783 13.6492C0.237307 14.084 0.406678 14.517 0.549992 14.948C2.59362 19.2681 7.47933 21.2446 11.0445 21.7952Z" fill="#2B2B2B"/>
<path d="M14.5287 20.8324C12.0998 22.9746 10.7709 25.561 10.542 28.5916C10.3047 31.7201 11.413 34.8938 13.6381 37.2035C13.8317 37.4031 13.988 37.628 14.1071 37.8784L0.231728 29.5347C3.68243 27.2664 7.14152 25.112 10.609 23.0715C10.836 22.9378 11.1757 22.6818 11.628 22.3035C11.66 22.2769 11.6825 22.2404 11.6921 22.1996C11.7017 22.1588 11.6978 22.1159 11.681 22.0776C11.5675 21.8103 11.3553 21.7162 11.0445 21.7952L14.5287 20.8324Z" fill="#2B2B2B"/>
<path d="M16.0977 0L16.1452 19.8215L32 29.4613L16.3127 38.94C16.2477 38.9793 16.1732 39 16.0971 39C16.021 39 15.946 38.9793 15.8799 38.94L14.1071 37.8784C13.988 37.628 13.8317 37.4031 13.6381 37.2035C11.413 34.8938 10.3047 31.7201 10.542 28.5916C10.7709 25.561 12.0998 22.9745 14.5287 20.8324C14.9022 20.5781 15.2401 20.3026 15.6175 20.0983C15.6572 20.054 15.6868 20.0015 15.7043 19.9444C15.7218 19.8874 15.7267 19.8271 15.7187 19.7679C15.7107 19.7087 15.6901 19.652 15.6581 19.6018C15.6261 19.5515 15.5837 19.509 15.5338 19.4771C14.1378 18.5989 12.633 17.557 11.4437 16.8257C8.00232 14.7043 4.4232 12.4388 0.706335 10.0294C0.572327 9.94089 0.336881 9.94183 0 10.0322C0.0111673 9.77995 0.0725876 9.61994 0.184261 9.55218C5.39754 6.37659 10.6183 3.21324 15.8464 0.0621192C15.9023 0.0282362 15.986 0.00752955 16.0977 0Z" fill="#55D89B"/>
<path d="M14.5985 20.8211C14.5985 20.8211 13.063 21.8094 11.0445 21.7952C9.02599 21.7811 2.07154 19.4771 0.549992 14.948C0.406677 14.517 0.237306 14.084 0.0418779 13.6492L0 10.0322C0.336881 9.94184 0.572327 9.94089 0.706335 10.0294C4.4232 12.4388 8.00233 14.7043 11.4437 16.8257C12.633 17.557 14.1378 18.5989 15.5338 19.4771C15.5837 19.509 15.6261 19.5515 15.6581 19.6018C15.6901 19.652 16.126 19.7737 16.134 19.8328C16.142 19.892 15.8548 19.974 15.8548 19.974C15.8548 19.974 15.6572 20.054 15.6175 20.0983C15.2965 20.2564 15.0173 20.5387 14.5985 20.8211Z" fill="#12B76F"/>
</svg>
